{"title":"Grayeagle (1977) VHSRip.avi","uid":5521589,"size":733464576,"categoryP":"video","categoryS":"movies","magnet":"?xt=urn:btih:2ef6265a754600c573f313cbdada8ce0bfb88559&amp;dn=Grayeagle+%281977%29+VHSRip.avi&amp;tr=udp%3A%2F%2Ftracker.openbittorrent.com%3A80&amp;tr=udp%3A%2F%2Fopen.demonii.com%3A1337&amp;tr=udp%3A%2F%2Ftracker.coppersurfer.tk%3A6969&amp;tr=udp%3A%2F%2Fexodus.desync.com%3A6969","seeders":0,"leechers":1,"uploader":"ratef","files":1,"time":1272633223,"description":" &lt;a href=&quot;http://www.imdb.com/title/tt0077630/&quot; rel=&quot;nofollow&quot; target=&quot;_NEW&quot;&gt;http://www.imdb.com/title/tt0077630/&lt;/a&gt;\n\nGeneral\nComplete name                    : Grayeagle (1977) VHSRip.avi\nFormat                           : AVI\nFormat/Info                      : Audio Video Interleave\nFile size                        : 699 MiB\nDuration                         : 1h 43mn\nOverall bit rate                 : 945 Kbps\nWriting application              : VirtualDubMod 1.5.10.2 (build 2542/release)\nWriting library                  : VirtualDubMod build 2542/release\n\nVideo\nID                               : 0\nFormat                           : MPEG-4 Visual\nFormat profile                   : Advanced Simple@L5\nFormat settings, BVOP            : Yes\nFormat settings, QPel            : No\nFormat settings, GMC             : No warppoints\nFormat settings, Matrix          : Default (H.263)\nMuxing mode                      : Packed bitstream\nCodec ID                         : XVID\nCodec ID/Hint                    : XviD\nDuration                         : 1h 43mn\nBit rate                         : 805 Kbps\nWidth                            : 592 pixels\nHeight                           : 400 pixels\nDisplay aspect ratio             : 3:2\nFrame rate                       : 29.970 fps\nResolution                       : 8 bits\nColorimetry                      : 4:2:0\nScan type                        : Progressive\nBits/(Pixel*Frame)               : 0.113\nStream size                      : 596 MiB (85%)\nWriting library                  : XviD 1.2.1 (UTC 2008-12-04)\n\nAudio\nID                               : 1\nFormat                           : MPEG Audio\nFormat version                   : Version 1\nFormat profile                   : Layer 3\nFormat_Settings_Mode             : Joint stereo\nFormat_Settings_ModeExtension    : MS Stereo\nCodec ID                         : 55\nCodec ID/Hint                    : MP3\nDuration                         : 1h 43mn\nBit rate mode                    : Constant\nBit rate                         : 128 Kbps\nChannel(s)                       : 2 channels\nSampling rate                    : 44.1 KHz\nStream size                      : 94.5 MiB (14%)\nAlignment                        : Aligned on interleaves\nInterleave, duration             : 33 ms (1.00 video frame)\nInterleave, preload duration     : 522 ms","torrent":{"xt":"urn:btih:2ef6265a754600c573f313cbdada8ce0bfb88559","amp;dn":"Grayeagle+%281977%29+VHSRip.avi","amp;tr":["udp%3A%2F%2Ftracker.openbittorrent.com%3A80","udp%3A%2F%2Fopen.demonii.com%3A1337","udp%3A%2F%2Ftracker.coppersurfer.tk%3A6969","udp%3A%2F%2Fexodus.desync.com%3A6969"],"infoHash":"2ef6265a754600c573f313cbdada8ce0bfb88559","infoHashBuffer":{"type":"Buffer","data":[46,246,38,90,117,70,0,197,115,243,19,203,218,218,140,224,191,184,133,89]},"announce":[],"urlList":[]}}